<svg width="70" height="70" viewBox="0 0 70 70" fill="none" xmlns="http://www.w3.org/2000/svg">
<path d="M65 0H5C2.23858 0 0 2.23858 0 5V65C0 67.7614 2.23858 70 5 70H65C67.7614 70 70 67.7614 70 65V5C70 2.23858 67.7614 0 65 0Z" fill="#CF2C67"/>
<path d="M53.8854 9.1875H16.1146C15.3125 9.1875 14.6562 9.84375 14.6562 10.6458V57.9688C14.6562 58.7708 15.3125 59.4271 16.1146 59.4271H30.9167C31.7188 59.4271 32.375 58.7708 32.375 57.9688C32.375 57.1667 31.7188 56.5104 30.9167 56.5104H17.5729V12.1042H52.4271V56.5104H51.4792C50.6771 56.5104 50.0208 57.1667 50.0208 57.9688C50.0208 58.7708 50.6771 59.4271 51.4792 59.4271H53.8854C54.6875 59.4271 55.3438 58.7708 55.3438 57.9688V10.6458C55.3438 9.84375 54.6875 9.1875 53.8854 9.1875Z" fill="white"/>
<path d="M48.708 51.9165C48.708 47.8332 45.3538 44.479 41.2705 44.479C37.1872 44.479 33.833 47.8332 33.833 51.9165C33.833 54.5415 35.2184 56.8019 37.1872 58.1144L35.7288 61.7603C35.4372 62.4894 35.8018 63.3644 36.5309 63.6561C36.6768 63.729 36.8955 63.729 37.0413 63.729C37.6247 63.729 38.1351 63.3644 38.4268 62.7811L39.8851 59.1353C40.3226 59.2082 40.7601 59.2811 41.1976 59.2811C41.6351 59.2811 42.0726 59.2082 42.4372 59.1353L43.8955 62.7811C44.1143 63.3644 44.6976 63.729 45.2809 63.729C45.4268 63.729 45.6455 63.729 45.7913 63.6561C46.5205 63.3644 46.8851 62.4894 46.5934 61.7603L45.1351 58.1873C47.3226 56.8019 48.708 54.5415 48.708 51.9165ZM41.2705 56.3644C38.7913 56.3644 36.7497 54.3228 36.7497 51.8436C36.7497 49.3644 38.7913 47.3228 41.2705 47.3228C43.7497 47.3228 45.7913 49.3644 45.7913 51.8436C45.7913 54.3957 43.7497 56.3644 41.2705 56.3644Z" fill="white"/>
<path d="M47.9795 16.771H22.0941C21.292 16.771 20.6357 17.4272 20.6357 18.2293C20.6357 19.0314 21.292 19.6877 22.0941 19.6877H47.9795C48.7816 19.6877 49.4378 19.0314 49.4378 18.2293C49.4378 17.4272 48.7816 16.771 47.9795 16.771Z" fill="white"/>
<path d="M22.0941 26.9792H45.3545C46.1566 26.9792 46.8128 26.3229 46.8128 25.5208C46.8128 24.7188 46.1566 24.0625 45.3545 24.0625H22.0941C21.292 24.0625 20.6357 24.7188 20.6357 25.5208C20.6357 26.3229 21.2191 26.9792 22.0941 26.9792Z" fill="white"/>
<path d="M47.9795 31.354H22.0941C21.292 31.354 20.6357 32.0103 20.6357 32.8123C20.6357 33.6144 21.292 34.2707 22.0941 34.2707H47.9795C48.7816 34.2707 49.4378 33.6144 49.4378 32.8123C49.4378 32.0103 48.7816 31.354 47.9795 31.354Z" fill="white"/>
<path d="M32.3024 38.646H22.0941C21.292 38.646 20.6357 39.3022 20.6357 40.1043C20.6357 40.9064 21.292 41.5627 22.0941 41.5627H32.3753C33.1774 41.5627 33.8337 40.9064 33.8337 40.1043C33.8337 39.3022 33.1045 38.646 32.3024 38.646Z" fill="white"/>
</svg>
