<svg width="70" height="70" viewBox="0 0 70 70" fill="none" xmlns="http://www.w3.org/2000/svg">
<path d="M65 0H5C2.23858 0 0 2.23858 0 5V65C0 67.7614 2.23858 70 5 70H65C67.7614 70 70 67.7614 70 65V5C70 2.23858 67.7614 0 65 0Z" fill="#B06FBE"/>
<path d="M47.4688 13.1978C47.1042 13.1978 46.7396 13.0519 46.4479 12.7603C40.1042 6.41651 31.6459 8.89568 31.2813 9.04151C30.4792 9.26026 29.6771 8.82276 29.4584 8.09359C29.2396 7.29151 29.6771 6.48943 30.4063 6.27068C30.8438 6.12484 40.9063 3.06234 48.4896 10.7186C49.0729 11.3019 49.0729 12.2498 48.4896 12.7603C48.1979 13.0519 47.8334 13.1978 47.4688 13.1978Z" fill="white"/>
<path d="M52.5729 23.9166C52.1354 23.9166 51.7708 23.7707 51.4792 23.4062C38.5 8.677 21.4375 17.4999 20.7083 17.8645C19.9792 18.2291 19.1042 17.9374 18.7396 17.2812C18.375 16.552 18.5938 15.677 19.3229 15.3124C19.5417 15.2395 39.1563 5.03116 53.6667 21.5103C54.1771 22.0937 54.1771 23.0416 53.5208 23.552C53.3021 23.8437 52.9375 23.9166 52.5729 23.9166Z" fill="white"/>
<path d="M55.6354 41.9997C55.3438 41.9997 55.125 41.9268 54.9062 41.7809C52.2083 40.1038 51.7708 37.8434 51.3333 35.8747C50.8958 33.5413 50.2396 30.9893 47.6875 28.0726C44.1146 23.9893 39.0104 21.583 34.125 21.6559C26.0312 21.7288 15.6771 30.1872 15.6042 30.2601C14.9479 30.7705 14.0729 30.6976 13.5625 30.0413C13.0521 29.3851 13.125 28.5101 13.7812 27.9997C14.2187 27.6351 25.0833 18.7393 34.1979 18.7393H34.2708C40.0312 18.7393 45.8646 21.5101 49.9479 26.1768C52.9375 29.6038 53.7396 32.6663 54.25 35.3643C54.6146 37.2601 54.9062 38.4268 56.4375 39.3747C57.0938 39.8122 57.3125 40.6872 56.9479 41.3434C56.5833 41.7809 56.0729 41.9997 55.6354 41.9997Z" fill="white"/>
<path d="M53.5206 49.583C53.3748 49.583 53.156 49.583 53.0102 49.51C45.7185 46.8121 45.2811 41.8538 44.9894 37.8434C44.6977 34.708 41.7081 29.8225 36.7498 28.7288C31.5727 27.635 25.8123 31.3538 23.2602 33.6871C20.1248 36.6038 15.604 39.958 15.3852 40.1038C14.729 40.6142 13.854 40.4684 13.3436 39.8121C12.8331 39.1559 12.979 38.2809 13.6352 37.7704C13.7081 37.7704 18.229 34.3434 21.2186 31.5725C24.9373 28.1455 31.354 24.6455 37.2602 25.885C43.3852 27.1975 47.3956 32.8121 47.7602 37.5517C48.0519 41.4163 48.3436 44.6975 53.8852 46.8121C54.6144 47.1038 55.0519 47.9059 54.7602 48.708C54.6873 49.2184 54.104 49.583 53.5206 49.583Z" fill="white"/>
<path d="M17.4997 51.9163C16.7705 51.9163 16.1142 51.333 16.0413 50.6038C15.9684 49.8018 16.5517 49.0726 17.3538 48.9997C20.9267 48.6351 25.083 45.7913 29.8226 40.6143C30.0413 40.3955 30.1872 40.1768 30.2601 40.1038C30.8434 39.5205 32.4476 37.9163 34.1976 38.2809C34.9267 38.4268 35.8747 39.0101 36.3851 40.6143C36.6038 41.2705 36.8955 41.6351 37.2601 41.708C37.9163 41.9268 38.8642 41.4163 39.083 41.2705C39.3017 41.1247 39.5934 40.6872 39.6663 39.958C39.7392 39.3018 39.6663 37.9163 38.2809 36.3122C37.4059 35.2184 35.7288 34.5622 33.9788 34.5622C31.3538 34.5622 28.8017 36.0205 26.6872 38.6455C21.5101 45.208 17.1351 46.3747 16.9163 46.4476C16.1142 46.6663 15.3122 46.1559 15.1663 45.3538C14.9476 44.5518 15.458 43.8226 16.1872 43.6038C16.2601 43.6038 19.9788 42.5101 24.4267 36.8955C27.0517 33.5413 30.4788 31.7184 33.9788 31.6455C36.6038 31.6455 39.083 32.6663 40.5413 34.4163C42.0726 36.2393 42.8017 38.2809 42.583 40.2497C42.4372 41.6351 41.8538 42.8018 40.9059 43.5309C40.3955 43.9684 38.4267 45.0622 36.458 44.4788C35.5101 44.1872 34.3434 43.458 33.6872 41.4893C33.6142 41.3434 33.5413 41.1976 33.5413 41.1247C33.3226 41.1976 33.0309 41.4893 32.4476 42.0726C32.3747 42.1455 32.2288 42.2913 32.083 42.5101C30.1142 44.6976 24.1351 51.2601 17.7184 51.8434C17.6455 51.8434 17.5726 51.9163 17.4997 51.9163Z" fill="white"/>
<path d="M19.9791 56.8018C19.25 56.8018 18.5937 56.2185 18.5208 55.4893C18.4479 54.6872 19.0312 53.958 19.8333 53.8851C19.9062 53.8851 24.1354 53.3747 29.4583 49.8018C35.6562 45.6455 43.3125 47.2497 46.8854 51.0414C48.9271 53.2289 50.8958 52.9372 50.9687 52.9372C51.7708 52.7914 52.5 53.3018 52.6458 54.1039C52.7916 54.906 52.2812 55.6351 51.552 55.781C51.4062 55.781 47.9791 56.5101 44.7708 53.0101C42.4375 50.531 36.5312 48.5622 31.1354 52.208C25.1562 56.2185 20.4166 56.7289 20.1979 56.8018C20.125 56.8018 20.0521 56.8018 19.9791 56.8018Z" fill="white"/>
<path d="M26.1771 61.3226C25.5209 61.3226 24.8646 60.8851 24.7188 60.1559C24.573 59.3539 25.0834 58.6247 25.8125 58.4059C25.8855 58.4059 30.1146 57.458 33.25 55.4164C37.8438 52.3539 40.5417 54.2497 43.0938 56.0726C43.9688 56.7289 44.9167 57.3851 46.0105 57.8955C46.7396 58.2601 47.0313 59.1351 46.6667 59.8643C46.3021 60.5934 45.4271 60.8851 44.698 60.5205C43.3855 59.8643 42.2917 59.1351 41.3438 58.4789C38.8646 56.7289 37.698 55.9268 34.7813 57.8226C31.2084 60.2289 26.5417 61.2497 26.3959 61.2497C26.323 61.3226 26.25 61.3226 26.1771 61.3226Z" fill="white"/>
<path d="M33.6146 64.4582C33.1042 64.4582 32.5938 64.1665 32.375 63.729C31.9375 62.9999 32.2292 62.1249 32.8854 61.7603C33.3959 61.4686 38.0625 58.8436 40.9792 61.2499C41.5625 61.7603 41.6354 62.7082 41.125 63.2915C40.6146 63.8749 39.6667 63.9478 39.0834 63.4374C38.0625 62.5624 35.4375 63.5832 34.3438 64.2395C34.125 64.3853 33.9063 64.4582 33.6146 64.4582Z" fill="white"/>
</svg>
