<svg width="70" height="70" viewBox="0 0 70 70" fill="none" xmlns="http://www.w3.org/2000/svg">
<path d="M65 0H5C2.23858 0 0 2.23858 0 5V65C0 67.7614 2.23858 70 5 70H65C67.7614 70 70 67.7614 70 65V5C70 2.23858 67.7614 0 65 0Z" fill="#14C4B7"/>
<path d="M42.5102 54.6145C41.3435 55.927 39.5935 57.6041 39.0102 57.9687C37.6248 58.9166 35.7289 58.7708 35.7289 58.7708C35.656 58.7708 35.5831 58.7708 35.5102 58.7708C33.4685 58.9166 32.5935 58.2603 32.5935 58.2603C32.4477 58.1145 32.3748 58.0416 32.2289 57.9687C28.656 55.9999 26.031 52.7187 24.4268 50.2395C23.4789 48.7083 22.6768 43.0937 22.4581 39.8853C21.7289 33.9062 21.4373 29.9687 21.7289 27.1978C22.531 24.2812 23.9893 20.8541 26.8331 18.5937C29.8227 16.1145 33.9789 15.3853 39.0831 16.4062C39.5935 16.552 45.0623 18.1562 47.9789 25.8124C47.9789 25.8853 47.9789 25.8853 47.9789 25.9583C48.3435 28.802 48.0518 32.302 47.8331 35.5833C47.7602 37.1145 47.6143 38.7187 47.5414 40.177C47.4685 41.8541 47.3956 43.3853 47.2498 44.6249C47.1769 45.427 47.7602 46.1562 48.4893 46.2291C48.5623 46.2291 48.6352 46.2291 48.6352 46.2291C49.3643 46.2291 50.0206 45.7187 50.0935 44.9166C50.1664 44.3333 50.2394 43.677 50.2394 43.0208C50.531 43.3853 50.8956 43.6041 51.406 43.6041C51.4789 43.6041 51.4789 43.6041 51.5518 43.6041C52.3539 43.5312 52.9373 42.802 52.8643 41.9999C52.4268 37.6249 52.4998 34.1249 52.4998 34.052C52.4998 33.9791 52.4998 33.8333 52.4998 33.7603C51.3331 16.552 40.1039 13.7083 39.6664 13.5624C33.6873 12.3958 28.7289 13.3437 25.0102 16.3333C18.156 21.8749 18.0102 32.3749 18.0102 32.8124C18.0102 55.4895 10.8643 57.677 10.6456 57.7499C9.84352 57.8958 9.3331 58.6249 9.47893 59.427C9.62477 60.1562 10.2081 60.6666 10.9373 60.6666C11.0102 60.6666 11.0831 60.6666 11.156 60.6666C11.9581 60.5208 18.0102 58.9895 20.1248 44.4791C20.4893 47.177 21.1456 50.3124 22.0935 51.7708C23.8435 54.4687 26.7602 58.1145 30.7706 60.3749C31.281 60.8124 32.5935 61.6145 34.9998 61.6145C35.2185 61.6145 35.4373 61.6145 35.656 61.6145C36.2394 61.6145 38.6456 61.6874 40.6873 60.3749C41.6352 59.7187 43.6768 57.7499 44.7706 56.5103C45.281 55.927 45.281 54.9791 44.6977 54.4687C43.9685 53.9583 43.0935 54.0312 42.5102 54.6145Z" fill="white"/>
<path d="M60.5208 57.8227C58.2604 57.531 56.4374 55.7081 55.052 52.3539C54.7604 51.6248 53.8854 51.2602 53.1562 51.5519C52.427 51.8435 52.0624 52.7185 52.3541 53.4477C54.177 57.8956 56.802 60.3019 60.1562 60.7394C60.2291 60.7394 60.302 60.7394 60.302 60.7394C61.0312 60.7394 61.6874 60.2289 61.7604 59.4269C61.9062 58.6248 61.3229 57.8956 60.5208 57.8227Z" fill="white"/>
<path d="M57.8228 26.25C55.854 15.4583 46.3748 7.21875 34.9998 7.21875C23.6248 7.21875 14.0728 15.4583 12.104 26.3229C6.19775 26.5417 5.76025 29.0208 5.76025 29.8229V41.8542C5.76025 42.2917 5.90609 42.6562 6.19775 42.9479C6.27067 43.0208 8.89567 45.3542 13.1978 45.3542C13.9998 45.3542 14.6561 44.6979 14.6561 43.8958V30.4792C14.6561 19.25 23.7707 10.1354 34.9998 10.1354C46.229 10.1354 55.3436 19.25 55.3436 30.4792V33.7604V38.4271C55.3436 44.5521 49.6561 49.5833 42.6561 49.5833H40.104C39.5207 47.7604 37.7707 46.4479 35.8019 46.4479C33.2498 46.4479 31.2082 48.4896 31.2082 51.0417C31.2082 53.5938 33.2498 55.6354 35.8019 55.6354C37.8436 55.6354 39.5207 54.3229 40.104 52.5H42.6561C48.4894 52.5 53.6665 49.5833 56.2915 45.2812C56.4373 45.3542 56.5102 45.3542 56.6561 45.3542C56.9477 45.3542 57.604 45.4271 58.4061 45.4271C59.9373 45.4271 62.0519 45.2083 63.2915 44.1146C63.9478 43.5312 64.3123 42.7292 64.3123 41.8542V29.75C64.2394 29.1667 63.9478 26.3958 57.8228 26.25ZM11.7394 30.4792V42.2917C10.2811 42.0729 9.26025 41.4896 8.67692 41.125V30.0417C8.89567 29.8958 9.62484 29.3854 11.8123 29.2396C11.7394 29.6771 11.7394 30.0417 11.7394 30.4792ZM35.729 52.6458C34.7811 52.6458 34.0519 51.9167 34.0519 50.9688C34.0519 50.0208 34.7811 49.2917 35.729 49.2917C36.604 49.2917 37.3332 50.0208 37.4061 50.8958V50.9688V51.0417C37.3332 51.9167 36.604 52.6458 35.729 52.6458ZM61.3228 41.8542C61.1769 42.2188 59.7915 42.5104 58.2603 42.4375V38.3542V33.6875V30.4063C58.2603 29.9688 58.2603 29.5312 58.2603 29.1667C60.5207 29.3125 61.2498 29.8229 61.3957 29.9688L61.3228 41.8542Z" fill="white"/>
</svg>
