<svg width="70" height="70" viewBox="0 0 70 70" fill="none" xmlns="http://www.w3.org/2000/svg">
<path d="M65 0H5C2.23858 0 0 2.23858 0 5V65C0 67.7614 2.23858 70 5 70H65C67.7614 70 70 67.7614 70 65V5C70 2.23858 67.7614 0 65 0Z" fill="#ED2D24"/>
<path d="M45.3548 37.1877C45.3548 38.4272 44.334 39.4481 43.0944 39.4481C41.8548 39.4481 40.834 38.4272 40.834 37.1877C40.834 35.9481 41.8548 34.9272 43.0944 34.9272C44.4069 34.9272 45.3548 35.9481 45.3548 37.1877Z" fill="white"/>
<path d="M37.2611 13.7814C37.2611 15.021 36.2402 16.0418 35.0006 16.0418C33.7611 16.0418 32.7402 15.021 32.7402 13.7814C32.7402 12.5418 33.7611 11.521 35.0006 11.521C36.2402 11.521 37.2611 12.5418 37.2611 13.7814Z" fill="white"/>
<path d="M37.2611 23.1149C37.2611 24.3545 36.2402 25.3753 35.0006 25.3753C33.7611 25.3753 32.7402 24.3545 32.7402 23.1149C32.7402 21.8753 33.7611 20.8545 35.0006 20.8545C36.2402 20.9274 37.2611 21.8753 37.2611 23.1149Z" fill="white"/>
<path d="M37.2611 32.5212C37.2611 33.7607 36.2402 34.7816 35.0006 34.7816C33.7611 34.7816 32.7402 33.7607 32.7402 32.5212C32.7402 31.2816 33.7611 30.2607 35.0006 30.2607C36.2402 30.2607 37.2611 31.2816 37.2611 32.5212Z" fill="white"/>
<path d="M29.0941 37.1877C29.0941 38.4272 28.0732 39.4481 26.8337 39.4481C25.5941 39.4481 24.5732 38.4272 24.5732 37.1877C24.5732 35.9481 25.5941 34.9272 26.8337 34.9272C28.1462 34.9272 29.0941 35.9481 29.0941 37.1877Z" fill="white"/>
<path d="M53.4486 23.1149C53.4486 24.3545 52.4277 25.3753 51.1881 25.3753C49.9486 25.3753 48.9277 24.3545 48.9277 23.1149C48.9277 21.8753 49.9486 20.8545 51.1881 20.8545C52.4277 20.9274 53.4486 21.8753 53.4486 23.1149Z" fill="white"/>
<path d="M45.3548 27.7814C45.3548 29.021 44.334 30.0418 43.0944 30.0418C41.8548 30.0418 40.834 29.021 40.834 27.7814C40.834 26.5418 41.8548 25.521 43.0944 25.521C44.4069 25.5939 45.3548 26.5418 45.3548 27.7814Z" fill="white"/>
<path d="M29.0941 27.7814C29.0941 29.021 28.0732 30.0418 26.8337 30.0418C25.5941 30.0418 24.5732 29.021 24.5732 27.7814C24.5732 26.5418 25.5941 25.521 26.8337 25.521C28.1462 25.5939 29.0941 26.5418 29.0941 27.7814Z" fill="white"/>
<path d="M53.4486 41.8542C53.4486 43.0938 52.4277 44.1146 51.1881 44.1146C49.9486 44.1146 48.9277 43.0938 48.9277 41.8542C48.9277 40.6146 49.9486 39.5938 51.1881 39.5938C52.4277 39.6667 53.4486 40.6146 53.4486 41.8542Z" fill="white"/>
<path d="M21.0003 23.1149C21.0003 24.3545 19.9795 25.3753 18.7399 25.3753C17.5003 25.3753 16.4795 24.3545 16.4795 23.1149C16.4795 21.8753 17.5003 20.8545 18.7399 20.8545C19.9795 20.9274 21.0003 21.8753 21.0003 23.1149Z" fill="white"/>
<path d="M21.0003 41.8542C21.0003 43.0938 19.9795 44.1146 18.7399 44.1146C17.5003 44.1146 16.4795 43.0938 16.4795 41.8542C16.4795 40.6146 17.5003 39.5938 18.7399 39.5938C19.9795 39.6667 21.0003 40.6146 21.0003 41.8542Z" fill="white"/>
<path d="M37.2611 41.8542C37.2611 43.0938 36.2402 44.1146 35.0006 44.1146C33.7611 44.1146 32.7402 43.0938 32.7402 41.8542C32.7402 40.6146 33.7611 39.5938 35.0006 39.5938C36.2402 39.6667 37.2611 40.6146 37.2611 41.8542Z" fill="white"/>
<path d="M37.2611 51.2604C37.2611 52.5 36.2402 53.5208 35.0006 53.5208C33.7611 53.5208 32.7402 52.5 32.7402 51.2604C32.7402 50.0208 33.7611 49 35.0006 49C36.2402 49 37.2611 50.0208 37.2611 51.2604Z" fill="white"/>
<path d="M37.2611 60.5939C37.2611 61.8335 36.2402 62.8543 35.0006 62.8543C33.7611 62.8543 32.7402 61.8335 32.7402 60.5939C32.7402 59.3543 33.7611 58.3335 35.0006 58.3335C36.2402 58.4064 37.2611 59.3543 37.2611 60.5939Z" fill="white"/>
</svg>
