<svg width="70" height="70" viewBox="0 0 70 70" fill="none" xmlns="http://www.w3.org/2000/svg">
<path d="M65 0H5C2.23858 0 0 2.23858 0 5V65C0 67.7614 2.23858 70 5 70H65C67.7614 70 70 67.7614 70 65V5C70 2.23858 67.7614 0 65 0Z" fill="#C1272D"/>
<path d="M48.3434 44.333C47.5413 44.333 46.8851 44.9893 46.8851 45.7913V62.4163H12.833V28.583C13.2705 28.5101 13.7809 28.4372 14.2184 28.4372H16.9893L14.7288 30.6976C14.1455 31.2809 14.1455 32.1559 14.7288 32.7393C15.0205 33.0309 15.3851 33.1768 15.7497 33.1768C16.1143 33.1768 16.4788 33.0309 16.7705 32.7393L21.5101 27.9997C22.0934 27.4163 22.0934 26.5413 21.5101 25.958L16.7705 21.2184C16.1872 20.6351 15.3122 20.6351 14.7288 21.2184C14.1455 21.8018 14.1455 22.6768 14.7288 23.2601L16.9893 25.5205H14.2184C13.7809 25.5205 13.2705 25.5205 12.833 25.5934V19.0309H46.8851V33.5413C46.8851 34.3434 47.5413 34.9997 48.3434 34.9997C49.1455 34.9997 49.8018 34.3434 49.8018 33.5413V17.5726C49.8018 16.7705 49.1455 16.1143 48.3434 16.1143H11.3747C10.5726 16.1143 9.91634 16.7705 9.91634 17.5726V26.3226C5.46843 28.0726 2.33301 32.3747 2.33301 37.4059C2.33301 40.4684 3.49967 43.3851 5.61426 45.5726C5.90592 45.8643 6.27051 46.0101 6.70801 46.0101C7.07259 46.0101 7.43717 45.8643 7.72884 45.6455C8.31218 45.0622 8.31217 44.1872 7.80176 43.6038C6.19759 41.9268 5.32259 39.7393 5.32259 37.4059C5.32259 33.9788 7.21842 31.0622 9.98926 29.5309V63.8747C9.98926 64.6768 10.6455 65.333 11.4476 65.333H48.4163C49.2184 65.333 49.8747 64.6768 49.8747 63.8747V45.7913C49.8018 44.9163 49.1455 44.333 48.3434 44.333Z" fill="white"/>
<path d="M42.291 23.6978H30.4056C29.6035 23.6978 28.9473 24.354 28.9473 25.1561C28.9473 25.9582 29.6035 26.6144 30.4056 26.6144H42.291C43.0931 26.6144 43.7493 25.9582 43.7493 25.1561C43.7493 24.354 43.0931 23.6978 42.291 23.6978Z" fill="white"/>
<path d="M42.291 29.604H30.4056C29.6035 29.604 28.9473 30.2603 28.9473 31.0623C28.9473 31.8644 29.6035 32.5207 30.4056 32.5207H42.291C43.0931 32.5207 43.7493 31.8644 43.7493 31.0623C43.7493 30.2603 43.0931 29.604 42.291 29.604Z" fill="white"/>
<path d="M42.291 35.583H17.0618C16.2598 35.583 15.6035 36.2393 15.6035 37.0413C15.6035 37.8434 16.2598 38.4997 17.0618 38.4997H42.291C43.0931 38.4997 43.7493 37.8434 43.7493 37.0413C43.7493 36.2393 43.0931 35.583 42.291 35.583Z" fill="white"/>
<path d="M42.291 41.5625H17.0618C16.2598 41.5625 15.6035 42.2188 15.6035 43.0208C15.6035 43.8229 16.2598 44.4792 17.0618 44.4792H42.291C43.0931 44.4792 43.7493 43.8229 43.7493 43.0208C43.7493 42.2188 43.0931 41.5625 42.291 41.5625Z" fill="white"/>
<path d="M42.2917 47.5415H16.9896C16.1875 47.5415 15.5312 48.1978 15.5312 48.9998C15.5312 49.8019 16.1875 50.4582 16.9896 50.4582H42.2917C43.0938 50.4582 43.75 49.8019 43.75 48.9998C43.75 48.1978 43.0938 47.5415 42.2917 47.5415Z" fill="white"/>
<path d="M42.2917 53.4478H16.9896C16.1875 53.4478 15.5312 54.104 15.5312 54.9061C15.5312 55.7082 16.1875 56.3644 16.9896 56.3644H42.2917C43.0938 56.3644 43.75 55.7082 43.75 54.9061C43.75 54.104 43.0938 53.4478 42.2917 53.4478Z" fill="white"/>
<path d="M67.6667 29.4582C67.6667 26.3957 66.5 23.479 64.3854 21.2915C63.8021 20.7082 62.9271 20.7082 62.3438 21.2186C61.7604 21.8019 61.7604 22.6769 62.2708 23.2603C63.875 24.9373 64.75 27.1248 64.75 29.4582C64.75 32.7394 63 35.5832 60.4479 37.1144V6.99984C60.4479 6.19775 59.7917 5.5415 58.9896 5.5415H22.0208C21.2188 5.5415 20.5625 6.19775 20.5625 6.99984V12.3957C20.5625 13.1978 21.2188 13.854 22.0208 13.854C22.8229 13.854 23.4792 13.1978 23.4792 12.3957V8.45817H57.5312V38.2811C56.9479 38.4269 56.3646 38.4269 55.7812 38.4269H53.0104L55.2708 36.1665C55.8542 35.5832 55.8542 34.7082 55.2708 34.1248C54.6875 33.5415 53.8125 33.5415 53.2292 34.1248L48.4896 38.8644C47.9062 39.4478 47.9062 40.3228 48.4896 40.9061L53.2292 45.6457C53.5208 45.9373 53.8854 46.0832 54.25 46.0832C54.6146 46.0832 54.9792 45.9373 55.2708 45.6457C55.8542 45.0623 55.8542 44.1873 55.2708 43.604L53.0104 41.3436H55.7812C56.3646 41.3436 56.9479 41.2707 57.5312 41.1978V51.7707H53.5208C52.7188 51.7707 52.0625 52.4269 52.0625 53.229C52.0625 54.0311 52.7188 54.6873 53.5208 54.6873H58.9896C59.7917 54.6873 60.4479 54.0311 60.4479 53.229V40.3957C64.6771 38.5728 67.6667 34.3436 67.6667 29.4582Z" fill="white"/>
</svg>
