<svg width="70" height="70" viewBox="0 0 70 70" fill="none" xmlns="http://www.w3.org/2000/svg">
<path d="M65 0H5C2.23858 0 0 2.23858 0 5V65C0 67.7614 2.23858 70 5 70H65C67.7614 70 70 67.7614 70 65V5C70 2.23858 67.7614 0 65 0Z" fill="#2E3192"/>
<path d="M45.4268 64.677C38.4997 64.677 29.2393 64.0208 29.2393 58.4791C29.2393 58.0416 29.6768 53.0104 29.8226 52.0625C30.0413 50.8958 30.9163 49.802 32.3747 48.9999C32.8851 48.7083 34.8538 47.7604 38.2809 46.302C39.0101 46.0104 39.8851 46.302 40.1768 47.0312C40.4684 47.7604 40.1768 48.6354 39.4476 48.927C35.8018 50.5312 34.1247 51.3333 33.833 51.4791C33.1038 51.9166 32.7393 52.3541 32.6663 52.5729C32.5205 53.302 32.083 57.9687 32.083 58.4062C32.083 59.9375 35.583 61.6145 45.3538 61.6145C53.958 61.6145 56.8747 60.4479 57.8955 59.427C58.1872 59.1354 58.333 58.8437 58.333 58.4791C58.2601 57.9687 57.9684 54.25 57.7497 52.427C57.6768 52.2812 57.458 51.9166 56.7288 51.552C55.6351 50.9687 52.6455 49.5833 50.9684 48.8541C50.2393 48.4895 49.9476 47.6145 50.2393 46.8854C50.6038 46.1562 51.4788 45.8645 52.208 46.1562C54.2497 47.1041 57.0205 48.3437 58.1143 48.927C60.3018 50.0208 60.6663 51.552 60.7393 51.8437C61.0309 53.8854 61.3226 58.1145 61.3226 58.2604V58.3333C61.3226 59.5 60.8851 60.5937 60.083 61.4687C57.9684 63.7291 53.4476 64.677 45.4268 64.677Z" fill="white"/>
<path d="M44.9896 47.7604C43.8958 47.7604 43.1666 47.3958 42.875 47.1771C41.4896 46.4479 40.1771 45.2083 39.1562 43.6771C38.4271 42.5833 38.1354 39.9583 37.9896 38.8646C37.2604 33.3229 37.6979 32.0833 39.2291 30.0417L39.3021 29.9688C40.8333 27.9271 44.4062 27.7812 45.1354 27.7812C45.4271 27.7812 48.1979 27.8542 50.4583 29.6771C52.5729 31.4271 52.3541 34.5625 52.1354 37.2604C52.0625 37.8438 52.0625 38.3542 52.0625 38.9375C51.9166 41.7083 51.5521 42.6563 51.1146 43.5313L51.0416 43.75C50.6041 44.6979 48.7083 46.6667 47.7604 47.25C46.8125 47.8333 45.7187 47.8333 45.2812 47.8333C45.1354 47.7604 45.0625 47.7604 44.9896 47.7604ZM44.4791 44.8438C44.5521 44.8438 44.6979 44.9167 44.9166 44.9167C44.9896 44.9167 45.0625 44.9167 45.0625 44.9167C45.1354 44.9167 45.2083 44.9167 45.2812 44.9167C45.6458 44.9167 45.9375 44.8438 46.0833 44.7708C46.5937 44.4792 48.0521 42.875 48.2708 42.4375C48.3437 42.3646 48.3437 42.2917 48.4166 42.1458C48.6354 41.7083 48.9271 41.1979 49.0729 38.8646C49.0729 38.2813 49.1458 37.6979 49.2187 37.1146C49.3646 35 49.5104 32.8125 48.5625 32.0104C47.1041 30.7708 45.1354 30.7708 45.1354 30.7708C44.0416 30.7708 42.1458 31.1354 41.6354 31.7917L41.5625 31.8646C40.6146 33.1771 40.1771 33.6875 40.9062 38.6458C41.0521 40.1771 41.3437 41.7813 41.5625 42.1458C42.1458 42.9479 43.0937 44.1146 44.3333 44.6979C44.3333 44.6979 44.4062 44.7708 44.4791 44.8438Z" fill="white"/>
<path d="M62.7811 48.7082H60.4478C59.6457 48.7082 58.9894 48.0519 58.9894 47.2498C58.9894 46.4478 59.6457 45.7915 60.4478 45.7915H61.3228V9.33317H8.67692V45.7915H28.8748C29.6769 45.7915 30.3332 46.4478 30.3332 47.2498C30.3332 48.0519 29.6769 48.7082 28.8748 48.7082H7.21859C6.4165 48.7082 5.76025 48.0519 5.76025 47.2498V7.87484C5.76025 7.07275 6.4165 6.4165 7.21859 6.4165H62.7082C63.5103 6.4165 64.1665 7.07275 64.1665 7.87484V47.2498C64.2394 48.0519 63.5832 48.7082 62.7811 48.7082Z" fill="white"/>
</svg>
