<svg width="70" height="70" viewBox="0 0 70 70" fill="none" xmlns="http://www.w3.org/2000/svg">
<path d="M65 0H5C2.23858 0 0 2.23858 0 5V65C0 67.7614 2.23858 70 5 70H65C67.7614 70 70 67.7614 70 65V5C70 2.23858 67.7614 0 65 0Z" fill="#29ABE2"/>
<path d="M58.6254 33.7606C57.8233 33.7606 57.1671 33.1043 57.1671 32.3022V32.1564C57.1671 31.4272 57.6775 30.8439 58.4066 30.6981C61.7608 30.1877 64.1671 27.271 64.1671 23.9168C64.1671 20.1252 61.1046 16.9897 57.24 16.9897C56.7296 16.9897 56.1462 17.0627 55.6358 17.2085C54.9067 17.3543 54.1775 16.9897 53.9587 16.2606C52.7191 12.9064 49.5837 10.646 46.0108 10.646C41.49 10.646 37.7712 14.2189 37.5525 18.7397C37.5525 19.1772 37.3337 19.5418 37.0421 19.7606C36.7504 20.0522 36.3129 20.1252 35.8754 20.0522C35.5837 19.9793 35.365 19.9793 35.1462 19.9793C34.1254 19.9793 33.1775 20.271 32.3025 20.7814C31.6462 21.2189 30.6983 21.0002 30.2608 20.3439C29.8233 19.6877 30.0421 18.7397 30.6983 18.3022C31.9379 17.5731 33.3233 17.1356 34.7087 17.0627C35.7296 11.8127 40.3962 7.80225 45.9379 7.80225C50.3129 7.80225 54.2504 10.3543 56.1462 14.2189C62.0525 13.5627 67.0837 18.2293 67.0837 23.9897C67.0837 28.6564 63.8754 32.521 59.4275 33.5418C59.2087 33.6877 58.9171 33.7606 58.6254 33.7606Z" fill="white"/>
<path d="M55.7087 60.1564H14.5837C14.4378 60.1564 14.3649 60.1564 14.2191 60.0835C7.87533 59.646 2.91699 54.396 2.91699 48.0522C2.91699 43.6772 5.25033 39.6668 9.04199 37.5522C9.04199 37.4064 9.04199 37.2606 9.04199 37.1147C9.04199 27.9272 16.4795 20.4897 25.667 20.4897C31.6462 20.4897 37.1878 23.771 40.1045 28.9481C41.417 28.5106 42.7295 28.2918 44.1149 28.2918C49.2191 28.2918 53.7399 31.3543 55.7087 35.9481C61.9066 36.5314 66.7191 41.7085 66.7191 48.0522C66.7191 54.1772 62.1982 59.2814 56.1462 60.0835C56.0003 60.1564 55.8545 60.1564 55.7087 60.1564ZM14.8024 57.2397H55.2712C55.3441 57.2397 55.417 57.1668 55.4899 57.1668C60.2295 56.7293 63.8024 52.7918 63.8024 47.9793C63.8753 43.021 59.792 38.8647 54.6878 38.8647C54.0316 38.8647 53.5212 38.4272 53.3024 37.8439C51.9899 33.9064 48.2712 31.2085 44.1149 31.2085C42.7295 31.2085 41.3441 31.5002 40.0316 32.1564C39.667 32.3022 39.3024 32.3022 38.9378 32.2293C38.5732 32.0835 38.2816 31.7918 38.1357 31.5002C35.8753 26.6147 30.9899 23.4793 25.667 23.4793C18.0837 23.4793 11.9587 29.6043 11.9587 37.1877C11.9587 37.5522 11.9587 37.9168 12.0316 38.3543C12.1045 38.9377 11.7399 39.521 11.2295 39.8127C7.94824 41.1981 5.83366 44.4793 5.83366 48.0522C5.83366 52.9377 9.69824 57.021 14.5837 57.2397C14.7295 57.2397 14.7295 57.2397 14.8024 57.2397Z" fill="white"/>
</svg>
