<svg width="70" height="70" viewBox="0 0 70 70" fill="none" xmlns="http://www.w3.org/2000/svg">
<g clip-path="url(#clip0_111_441)">
<path d="M65 0H5C2.23858 0 0 2.23858 0 5V65C0 67.7614 2.23858 70 5 70H65C67.7614 70 70 67.7614 70 65V5C70 2.23858 67.7614 0 65 0Z" fill="#FBB03B"/>
<path d="M64.1667 14.3644C63.875 14.2186 57.0208 11.229 49.2188 11.229C42.5833 11.229 36.8229 13.3436 34.9271 14.1457C33.1042 13.4165 27.2708 11.229 20.6354 11.229C12.8333 11.229 5.97917 14.2915 5.6875 14.3644C5.17708 14.5832 4.8125 15.0936 4.8125 15.6769V55.0519C4.8125 55.5623 5.03125 55.9998 5.46875 56.2915C5.6875 56.4373 5.97917 56.5103 6.27083 56.5103C6.48958 56.5103 6.63542 56.4373 6.85417 56.3644C6.92708 56.3644 13.7812 53.4478 20.7083 53.4478C27.5625 53.4478 34.2708 56.2915 34.3437 56.3644H34.4167C34.4896 56.3644 34.5625 56.3644 34.5625 56.4373C34.6354 56.4373 34.7083 56.4373 34.7083 56.5103C34.7812 56.5103 34.8542 56.5103 34.8542 56.5103C34.9271 56.5103 35 56.5103 35 56.5103C35.0729 56.5103 35.1458 56.5103 35.1458 56.4373C35.2188 56.4373 35.2917 56.4373 35.2917 56.3644H35.3646C35.4375 56.3644 42.1458 53.4478 49 53.4478C55.8542 53.4478 62.7812 56.3644 62.8542 56.3644C63.0729 56.4373 63.2187 56.5103 63.4375 56.5103C63.7292 56.5103 64.0208 56.4373 64.2396 56.2915C64.6771 55.9998 64.8958 55.5623 64.8958 55.0519V15.6769C65.0417 15.0936 64.6771 14.5832 64.1667 14.3644ZM7.80208 52.9373V16.6248C9.77083 15.8228 15.0208 14.0728 20.7083 14.0728C26.3958 14.0728 31.5 15.8228 33.5417 16.6248V52.9373C30.8438 51.9894 25.9583 50.5311 20.7812 50.5311C15.5312 50.5311 10.5 51.9894 7.80208 52.9373ZM62.125 52.9373C59.4271 51.9894 54.3229 50.5311 49.1458 50.5311C43.9688 50.5311 39.0833 51.9894 36.3854 52.9373V16.6248C38.3542 15.8228 43.5312 14.0728 49.2188 14.0728C54.9062 14.0728 60.0833 15.8228 62.125 16.6248V52.9373Z" fill="white"/>
<path d="M12.25 25.0832C12.4687 25.0832 12.6875 25.0103 12.8333 24.9373C12.9062 24.9373 16.552 23.2603 20.7083 23.2603C24.7916 23.2603 28.3645 24.8644 28.5104 24.9373C29.2395 25.3019 30.1145 24.9373 30.4062 24.2082C30.7708 23.479 30.4062 22.604 29.677 22.3123C29.5312 22.2394 25.4479 20.4165 20.7083 20.4165C15.9687 20.4165 11.8125 22.2394 11.6666 22.3123C10.9375 22.6769 10.5729 23.479 10.9375 24.2082C11.1562 24.7915 11.6666 25.0832 12.25 25.0832Z" fill="white"/>
<path d="M29.6041 30.6248C29.4583 30.5519 25.1562 28.729 20.6354 28.729C16.1145 28.729 11.8124 30.5519 11.5937 30.6248C10.8645 30.9165 10.4999 31.7915 10.7916 32.5207C11.0833 33.2498 11.9583 33.6144 12.6874 33.3228C12.7604 33.3228 16.6979 31.6457 20.5624 31.6457C24.427 31.6457 28.2916 33.3228 28.3645 33.3228C28.5833 33.3957 28.7291 33.4686 28.9479 33.4686C29.5312 33.4686 30.0416 33.104 30.2604 32.5936C30.6979 31.7915 30.3333 30.9894 29.6041 30.6248Z" fill="white"/>
<path d="M29.6041 38.9373C29.4583 38.8644 25.1562 37.0415 20.6354 37.0415C16.1145 37.0415 11.8124 38.8644 11.5937 38.9373C10.8645 39.229 10.4999 40.104 10.7916 40.8332C11.0833 41.5623 11.9583 41.9269 12.6874 41.6353C12.7604 41.6353 16.6979 39.9582 20.5624 39.9582C24.427 39.9582 28.2916 41.6353 28.3645 41.6353C28.5833 41.7082 28.7291 41.7811 28.9479 41.7811C29.5312 41.7811 30.0416 41.4165 30.2604 40.9061C30.6979 40.1769 30.3333 39.3019 29.6041 38.9373Z" fill="white"/>
<path d="M39.521 24.2809C39.8855 25.0101 40.6876 25.3747 41.4168 25.0101C41.4897 25.0101 45.2085 23.333 49.2918 23.333C53.3751 23.333 57.021 24.9372 57.0939 25.0101C57.3126 25.083 57.4585 25.1559 57.6772 25.1559C58.2605 25.1559 58.771 24.8643 58.9897 24.2809C59.3543 23.5518 58.9897 22.6768 58.2605 22.3851C58.1147 22.3122 54.0314 20.4893 49.2918 20.4893C44.5522 20.4893 40.396 22.3122 40.2501 22.3851C39.521 22.6768 39.1564 23.4788 39.521 24.2809Z" fill="white"/>
<path d="M58.2604 30.6248C58.1145 30.5519 53.8124 28.729 49.2916 28.729C44.7708 28.729 40.4687 30.5519 40.2499 30.6248C39.5208 30.9165 39.1562 31.7915 39.4479 32.5207C39.7395 33.2498 40.6145 33.6144 41.3437 33.3228C41.4166 33.3228 45.3541 31.6457 49.2187 31.6457C53.0833 31.6457 56.9479 33.3228 57.0208 33.3228C57.2395 33.3957 57.3854 33.4686 57.6041 33.4686C58.1874 33.4686 58.6979 33.104 58.9166 32.5936C59.3541 31.7915 58.9895 30.9894 58.2604 30.6248Z" fill="white"/>
<path d="M58.2604 38.9373C58.1145 38.8644 53.8124 37.0415 49.2916 37.0415C44.7708 37.0415 40.4687 38.8644 40.2499 38.9373C39.5208 39.229 39.1562 40.104 39.4479 40.8332C39.7395 41.5623 40.6145 41.9269 41.3437 41.6353C41.4166 41.6353 45.3541 39.9582 49.2187 39.9582C53.0833 39.9582 56.9479 41.6353 57.0208 41.6353C57.2395 41.7082 57.3854 41.7811 57.6041 41.7811C58.1874 41.7811 58.6979 41.4165 58.9166 40.9061C59.3541 40.1769 58.9895 39.3019 58.2604 38.9373Z" fill="white"/>
</g>
<defs>
<clipPath id="clip0_111_441">
<rect width="70" height="70" fill="white"/>
</clipPath>
</defs>
</svg>
